<svg xmlns="http://www.w3.org/2000/svg" version="1.1" xmlns:xlink="http://www.w3.org/1999/xlink" xmlns:svgjs="http://svgjs.dev/svgjs" width="2000" height="641" viewBox="0 0 2000 641"><g transform="matrix(1,0,0,1,-1.2121212121212466,0.6144305189076249)"><svg viewBox="0 0 396 127" data-background-color="#ffffff" preserveAspectRatio="xMidYMid meet" height="641" width="2000" xmlns="http://www.w3.org/2000/svg" xmlns:xlink="http://www.w3.org/1999/xlink"><g id="tight-bounds" transform="matrix(1,0,0,1,0.2400000000000091,-0.1217358438397298)"><svg viewBox="0 0 395.52 127.24347168767943" height="127.24347168767943" width="395.52"><g><svg viewBox="0 0 674.8102658608652 217.09446035250411" height="127.24347168767943" width="395.52"><g transform="matrix(1,0,0,1,277.3126658608653,1.5955116193749888)"><svg viewBox="0 0 397.4975999999999 213.90343711375414" height="213.90343711375414" width="397.4975999999999"><g id="textblocktransform"><svg viewBox="0 0 397.4975999999999 213.90343711375414" height="213.90343711375414" width="397.4975999999999" id="textblock"><g><rect width="397.4975999999999" height="12.093794941250565" x="0" y="148.35236717848122" fill="#ffffff" opacity="1" stroke-width="0" stroke="transparent" fill-opacity="1" class="rect-yte-0" data-fill-palette-color="primary" rx="1%" id="yte-0" data-palette-color="#0e4ec2"></rect></g><g transform="matrix(1,0,0,1,0.9887999999999693,0)"><svg viewBox="0 0 395.52 134.10575010109181" height="134.10575010109181" width="395.52"><g transform="matrix(1,0,0,1,0,0)"><svg width="395.52" viewBox="2.6 -32.55 123.64 41.93" height="134.10575010109181" data-palette-color="#0e4ec2"><path d="M14.95 0.6L14.95 0.6Q8.9 0.6 5.75-2.74 2.6-6.08 2.6-12.3L2.6-12.3 2.6-19.68Q2.6-25.88 5.75-29.21 8.9-32.55 14.95-32.55L14.95-32.55Q21-32.55 24.15-29.21 27.3-25.88 27.3-19.68L27.3-19.68 27.3-12.3Q27.3-6.08 24.15-2.74 21 0.6 14.95 0.6ZM14.95-2.88L14.95-2.88Q19-2.88 21.05-5.29 23.1-7.7 23.1-12.13L23.1-12.13 23.1-19.85Q23.1-24.28 21.05-26.68 19-29.08 14.95-29.08L14.95-29.08Q10.93-29.08 8.88-26.68 6.83-24.28 6.83-19.85L6.83-19.85 6.83-12.13Q6.83-7.7 8.88-5.29 10.93-2.88 14.95-2.88ZM40.85 0.55L40.85 0.55Q37.9 0.55 35.7-0.09 33.5-0.73 32.05-1.48L32.05-1.48 31.67-5.23Q33.5-4.28 35.69-3.58 37.87-2.88 40.65-2.88L40.65-2.88Q43.47-2.88 44.9-3.78 46.32-4.67 46.32-6.45L46.32-6.45 46.32-6.73Q46.32-7.88 45.78-8.63 45.25-9.38 43.85-9.95 42.45-10.53 39.87-11.1L39.87-11.1Q36.8-11.78 35.02-12.69 33.25-13.6 32.48-14.95 31.72-16.3 31.72-18.25L31.72-18.25 31.72-18.48Q31.72-21.68 33.95-23.33 36.17-24.98 40.65-24.98L40.65-24.98Q43.52-24.98 45.63-24.33 47.75-23.68 49.1-22.88L49.1-22.88 49.47-19.45Q47.85-20.4 45.75-21.03 43.65-21.65 41.02-21.65L41.02-21.65Q39.12-21.65 37.95-21.26 36.77-20.88 36.25-20.16 35.72-19.45 35.72-18.45L35.72-18.45 35.72-18.25Q35.72-17.15 36.25-16.39 36.77-15.63 38.13-15.06 39.5-14.5 41.92-13.98L41.92-13.98Q45.05-13.35 46.89-12.48 48.72-11.6 49.52-10.26 50.32-8.93 50.32-6.83L50.32-6.83 50.32-6.4Q50.32-2.95 47.92-1.2 45.52 0.55 40.85 0.55ZM65.52 0.55L65.52 0.55Q59.95 0.55 57.12-2.18 54.3-4.9 54.3-9.98L54.3-9.98 54.3-14.33Q54.3-19.48 56.92-22.26 59.55-25.05 64.59-25.05L64.59-25.05Q68-25.05 70.27-23.79 72.55-22.53 73.69-20.2 74.84-17.88 74.84-14.65L74.84-14.65 74.84-13.75Q74.84-12.95 74.78-12.15 74.72-11.35 74.62-10.58L74.62-10.58 70.89-10.58Q70.94-11.78 70.96-12.85 70.97-13.93 70.97-14.83L70.97-14.83Q70.97-17.05 70.26-18.59 69.55-20.13 68.13-20.94 66.72-21.75 64.59-21.75L64.59-21.75Q61.45-21.75 59.87-19.93 58.3-18.1 58.3-14.7L58.3-14.7 58.3-12.38 58.32-11.88 58.32-9.55Q58.32-8.03 58.77-6.8 59.22-5.58 60.18-4.69 61.14-3.8 62.63-3.34 64.12-2.88 66.17-2.88L66.17-2.88Q68.55-2.88 70.59-3.5 72.64-4.13 74.44-5.2L74.44-5.2 74.07-1.7Q72.44-0.68 70.3-0.06 68.14 0.55 65.52 0.55ZM73.77-13.63L73.77-10.58 56.42-10.58 56.42-13.63 73.77-13.63ZM89.74-7.3L89.74-7.3Q84.77-7.3 82.1-9.47 79.44-11.65 79.44-15.7L79.44-15.7 79.44-16.32Q79.44-18.85 80.48-20.73 81.52-22.6 83.79-23.66 86.07-24.73 89.74-24.83L89.74-24.83 102.19-25.23 102.19-22.03 94.84-22.28 94.82-22.1Q96.54-21.75 97.64-20.9 98.74-20.05 99.28-18.78 99.82-17.5 99.82-15.8L99.82-15.8 99.82-15.25Q99.82-11.38 97.27-9.34 94.72-7.3 89.74-7.3ZM89.57 6.15L89.57 6.15 90.14 6.15Q92.39 6.15 94 5.81 95.62 5.48 96.49 4.75 97.37 4.03 97.37 2.83L97.37 2.83 97.37 2.73Q97.37 1.33 96.35 0.59 95.34-0.15 92.89-0.38L92.89-0.38 85.99-1 87.14-1.05Q85.74-0.85 84.68-0.4 83.62 0.05 83.02 0.79 82.42 1.53 82.42 2.63L82.42 2.63 82.42 2.68Q82.42 3.95 83.29 4.73 84.17 5.5 85.77 5.83 87.37 6.15 89.57 6.15ZM90.07 9.38L90.07 9.38 89.34 9.38Q86.04 9.38 83.66 8.81 81.27 8.25 79.95 6.99 78.64 5.73 78.64 3.6L78.64 3.6 78.64 3.5Q78.64 2 79.35 1 80.07 0 81.28-0.58 82.49-1.15 83.99-1.35L83.99-1.35 83.97-1.5Q81.92-1.85 80.94-2.71 79.97-3.58 79.97-4.95L79.97-4.95 79.97-4.98Q79.97-5.93 80.41-6.6 80.84-7.28 81.73-7.68 82.62-8.08 83.99-8.18L83.99-8.18 83.99-8.68 88.64-7.5 86.74-7.55Q85.04-7.53 84.39-7.14 83.74-6.75 83.74-5.98L83.74-5.98 83.74-5.95Q83.74-5.13 84.67-4.7 85.59-4.28 87.82-4.03L87.82-4.03 93.74-3.43Q97.62-3.03 99.39-1.56 101.17-0.1 101.17 2.75L101.17 2.75 101.17 2.88Q101.17 5.15 99.82 6.6 98.47 8.05 95.99 8.71 93.52 9.38 90.07 9.38ZM89.69-10.3L89.69-10.3Q91.79-10.3 93.18-10.91 94.57-11.53 95.28-12.76 95.99-14 95.99-15.8L95.99-15.8 95.99-16.4Q95.99-18.15 95.3-19.38 94.62-20.6 93.24-21.24 91.87-21.88 89.79-21.88L89.79-21.88 89.64-21.88Q87.39-21.88 85.98-21.19 84.57-20.5 83.93-19.26 83.29-18.03 83.29-16.38L83.29-16.38 83.29-15.8Q83.29-14 84-12.78 84.72-11.55 86.14-10.93 87.57-10.3 89.69-10.3ZM115.56 0.63L115.56 0.63Q110.31 0.63 107.6-2.21 104.89-5.05 104.89-10.38L104.89-10.38 104.89-14.1Q104.89-19.4 107.61-22.23 110.34-25.05 115.56-25.05L115.56-25.05Q120.81-25.05 123.53-22.23 126.24-19.4 126.24-14.1L126.24-14.1 126.24-10.38Q126.24-5.05 123.53-2.21 120.81 0.63 115.56 0.63ZM115.56-2.68L115.56-2.68Q118.81-2.68 120.5-4.6 122.19-6.53 122.19-10.15L122.19-10.15 122.19-14.33Q122.19-17.93 120.5-19.84 118.81-21.75 115.56-21.75L115.56-21.75Q112.34-21.75 110.64-19.84 108.94-17.93 108.94-14.33L108.94-14.33 108.94-10.15Q108.94-6.53 110.64-4.6 112.34-2.68 115.56-2.68Z" opacity="1" transform="matrix(1,0,0,1,0,0)" fill="#ffffff" class="wordmark-text-0" data-fill-palette-color="primary" id="text-0"></path></svg></g></svg></g><g transform="matrix(1,0,0,1,0,174.69277919712118)"><svg viewBox="0 0 232.209792 39.21065791663294" height="39.21065791663294" width="232.209792"><g transform="matrix(1,0,0,1,0,0)"><svg width="232.209792" viewBox="2.6 -33.13 247.08 41.730000000000004" height="39.21065791663294" data-palette-color="#1053d7"><path d="M14.95 0.6L14.95 0.6Q8.9 0.6 5.75-2.74 2.6-6.08 2.6-12.3L2.6-12.3 2.6-19.68Q2.6-25.88 5.75-29.21 8.9-32.55 14.95-32.55L14.95-32.55Q21-32.55 24.15-29.21 27.3-25.88 27.3-19.68L27.3-19.68 27.3-12.3Q27.3-6.08 24.15-2.74 21 0.6 14.95 0.6ZM14.95-2.88L14.95-2.88Q19-2.88 21.05-5.29 23.1-7.7 23.1-12.13L23.1-12.13 23.1-19.85Q23.1-24.28 21.05-26.68 19-29.08 14.95-29.08L14.95-29.08Q10.93-29.08 8.88-26.68 6.83-24.28 6.83-19.85L6.83-19.85 6.83-12.13Q6.83-7.7 8.88-5.29 10.93-2.88 14.95-2.88ZM43.55 0L37.32 0 31.32-24.4 35.5-24.4 40.3-2.95 40.77-2.95 45.77-23.75 51.5-23.75 56.5-2.95 56.95-2.95 61.8-24.4 65.95-24.4 59.95 0 53.75 0 49.62-17.35 48.82-20.83 48.45-20.83 47.67-17.35 43.55 0ZM91.02 0L86.97 0 86.97-15.18Q86.97-17.15 86.43-18.57 85.89-20 84.68-20.79 83.47-21.58 81.37-21.58L81.37-21.58Q79.44-21.58 78.03-20.85 76.62-20.13 75.75-18.89 74.87-17.65 74.52-16.07L74.52-16.07 73.8-18.95 74.67-18.95Q75.07-20.6 76.07-21.96 77.07-23.33 78.76-24.14 80.44-24.95 82.89-24.95L82.89-24.95Q85.8-24.95 87.58-23.85 89.37-22.75 90.19-20.69 91.02-18.63 91.02-15.63L91.02-15.63 91.02 0ZM74.69 0L70.64 0 70.64-24.4 74.69-24.4 74.52-18.55 74.69-18.32 74.69 0ZM129.69 0L125.67 0 125.84-5.93 125.69-6.55 125.69-14.33 125.72-15.75Q125.72-18.73 124.2-20.15 122.69-21.58 119.42-21.58L119.42-21.58Q116.79-21.58 114.6-20.83 112.42-20.08 110.72-19.07L110.72-19.07 111.09-22.53Q112.04-23.1 113.35-23.66 114.67-24.23 116.35-24.6 118.04-24.98 120.07-24.98L120.07-24.98Q122.69-24.98 124.53-24.34 126.37-23.7 127.5-22.5 128.64-21.3 129.17-19.6 129.69-17.9 129.69-15.8L129.69-15.8 129.69 0ZM117.27 0.53L117.27 0.53Q113.64 0.53 111.7-1.24 109.77-3 109.77-6.28L109.77-6.28 109.77-7Q109.77-10.38 111.85-12.04 113.94-13.7 118.49-14.35L118.49-14.35 126.22-15.45 126.44-12.5 118.99-11.43Q116.19-11.03 114.99-10.06 113.79-9.1 113.79-7.23L113.79-7.23 113.79-6.83Q113.79-4.9 114.98-3.88 116.17-2.85 118.54-2.85L118.54-2.85Q120.64-2.85 122.14-3.58 123.64-4.3 124.57-5.53 125.49-6.75 125.82-8.25L125.82-8.25 126.44-5.5 125.67-5.5Q125.32-3.9 124.35-2.53 123.39-1.15 121.67-0.31 119.94 0.53 117.27 0.53ZM159.16 0.58L159.16 0.58Q156.86 0.58 154.95 0.2 153.04-0.18 151.54-0.73 150.04-1.28 149.04-1.83L149.04-1.83 148.61-5.95Q150.54-4.8 153.15-3.94 155.76-3.08 158.84-3.08L158.84-3.08Q162.54-3.08 164.31-4.39 166.09-5.7 166.09-8.33L166.09-8.33 166.09-8.72Q166.09-10.45 165.39-11.55 164.69-12.65 163.02-13.4 161.36-14.15 158.51-14.8L158.51-14.8Q154.91-15.65 152.75-16.81 150.59-17.98 149.62-19.73 148.66-21.48 148.66-24.08L148.66-24.08 148.66-24.3Q148.66-28.23 151.24-30.36 153.81-32.5 159.04-32.5L159.04-32.5Q162.46-32.5 164.87-31.8 167.29-31.1 168.81-30.25L168.81-30.25 169.19-26.45Q167.41-27.5 165.05-28.24 162.69-28.98 159.64-28.98L159.64-28.98Q157.21-28.98 155.71-28.4 154.21-27.83 153.54-26.75 152.86-25.68 152.86-24.15L152.86-24.15 152.86-24.05Q152.86-22.5 153.52-21.4 154.19-20.3 155.85-19.5 157.51-18.7 160.59-17.95L160.59-17.95Q164.11-17.13 166.24-16.05 168.36-14.98 169.32-13.25 170.29-11.53 170.29-8.75L170.29-8.75 170.29-8.22Q170.29-3.9 167.5-1.66 164.71 0.58 159.16 0.58ZM196.21 0L192.16 0 192.16-15.18Q192.16-17.15 191.62-18.57 191.08-20 189.87-20.79 188.66-21.58 186.56-21.58L186.56-21.58Q184.63-21.58 183.23-20.85 181.83-20.13 180.97-18.89 180.11-17.65 179.76-16.07L179.76-16.07 178.86-18.95 179.91-18.95Q180.28-20.6 181.28-21.96 182.28-23.33 183.97-24.14 185.66-24.95 188.08-24.95L188.08-24.95Q190.98-24.95 192.77-23.85 194.56-22.75 195.38-20.69 196.21-18.63 196.21-15.63L196.21-15.63 196.21 0ZM179.88 0L175.83 0 175.83-33.13 179.86-33.13 179.86-25.18 179.73-18.18 179.88-17.85 179.88 0ZM212.18 0.63L212.18 0.63Q206.93 0.63 204.22-2.21 201.51-5.05 201.51-10.38L201.51-10.38 201.51-14.1Q201.51-19.4 204.23-22.23 206.96-25.05 212.18-25.05L212.18-25.05Q217.43-25.05 220.14-22.23 222.86-19.4 222.86-14.1L222.86-14.1 222.86-10.38Q222.86-5.05 220.14-2.21 217.43 0.63 212.18 0.63ZM212.18-2.68L212.18-2.68Q215.43-2.68 217.12-4.6 218.81-6.53 218.81-10.15L218.81-10.15 218.81-14.33Q218.81-17.93 217.12-19.84 215.43-21.75 212.18-21.75L212.18-21.75Q208.96-21.75 207.26-19.84 205.56-17.93 205.56-14.33L205.56-14.33 205.56-10.15Q205.56-6.53 207.26-4.6 208.96-2.68 212.18-2.68ZM240.5 0.53L240.5 0.53Q238.25 0.53 236.6-0.23 234.95-0.98 233.93-2.38 232.9-3.78 232.55-5.63L232.55-5.63 231.23-5.63 232.4-9.43Q232.5-7.23 233.39-5.76 234.28-4.3 235.8-3.58 237.33-2.85 239.25-2.85L239.25-2.85Q242.33-2.85 243.97-4.65 245.6-6.45 245.6-9.93L245.6-9.93 245.6-14.6Q245.6-18.05 243.98-19.85 242.35-21.65 239.25-21.65L239.25-21.65Q237.4-21.65 235.98-20.93 234.55-20.2 233.62-18.95 232.68-17.7 232.33-16.1L232.33-16.1 231.33-18.93 232.5-18.93Q232.9-20.6 233.87-21.96 234.83-23.33 236.52-24.14 238.2-24.95 240.68-24.95L240.68-24.95Q245.08-24.95 247.38-22.21 249.68-19.48 249.68-14.28L249.68-14.28 249.68-10.23Q249.68-4.98 247.37-2.23 245.05 0.53 240.5 0.53ZM232.5 8.6L228.48 8.6 228.48-24.4 232.53-24.4 232.35-18.53 232.4-17.28 232.4-7 232.38-6.18 232.5 0.68 232.5 8.6Z" opacity="1" transform="matrix(1,0,0,1,0,0)" fill="#ffffff" class="slogan-text-1" data-fill-palette-color="secondary" id="text-1"></path></svg></g></svg></g></svg></g></svg></g><g><svg viewBox="0 0 245.65351679999995 217.09446035250411" height="217.09446035250411" width="245.65351679999995"><g><svg xmlns="http://www.w3.org/2000/svg" xmlns:xlink="http://www.w3.org/1999/xlink" version="1.1" x="0" y="0" viewBox="9.22 11.139998451500785 85.13 75.23300154849922" enable-background="new 0 0 100 100" xml:space="preserve" height="217.09446035250411" width="245.65351679999995" class="icon-icon-0" data-fill-palette-color="accent" id="icon-0"><g fill="#f231aa" data-fill-palette-color="accent"><g fill="#f231aa" data-fill-palette-color="accent"><path d="M70.611 34.62L66.412 13.002H73.12L80.113 34.62zM47.05 34.62L48.439 13.002H54.885L56.212 34.62zM23.523 34.62L30.442 13.002H37.193L32.911 34.62zM22.957 65.521V39.557C23.887 41.195 26.002 42.535 28.263 42.535 30.835 42.535 32.897 40.8 34.112 38.867 35.325 40.8 37.42 42.535 39.993 42.535 42.565 42.535 44.677 40.8 45.889 38.867 47.102 40.8 49.221 42.535 51.795 42.535 54.367 42.535 56.491 40.8 57.705 38.867 58.917 40.8 61.042 42.535 63.613 42.535 66.187 42.535 68.312 40.8 69.527 38.867 70.74 40.8 72.736 42.535 75.31 42.535 77.572 42.535 79.683 41.195 80.613 39.557V65.521zM94.25 34.62C94.26 34.62 94.27 34.39 94.23 34.26 94.169 34.07 94.049 33.94 93.91 33.82L84.18 11.92A1.12 1.12 0 0 0 83.111 11.14H20.46C19.97 11.14 19.54 11.47 19.39 11.94L9.8 33.74C9.58 33.89 9.4 34.07 9.32 34.34 9.29 34.45 9.31 34.62 9.31 34.62H9.22L9.31 35.87C9.51 38.5 12.44 42.51 16.35 42.51 17.02 42.51 17.38 42.41 18.31 45.2L18.375 86.373C20.155 86.373 46.25 86.33 46.25 86.33V76.38A5.875 5.875 0 1 1 58 76.38V86.33S82.105 86.251 85.125 86.251L85.27 45.2C86.201 42.41 86.55 42.53 87.22 42.53 91.13 42.53 94.04 38.5 94.241 35.87L94.35 34.62z" fill="#ffffff" data-fill-palette-color="accent"></path></g></g><rect x="29.5" y="46.5" width="13.5" height="12.75" fill="#ffffff" data-fill-palette-color="accent"></rect><rect x="45.375" y="46.5" width="13.5" height="12.75" fill="#ffffff" data-fill-palette-color="accent"></rect><rect x="61.25" y="46.5" width="13.5" height="12.75" fill="#ffffff" data-fill-palette-color="accent"></rect></svg></g></svg></g></svg></g><defs></defs></svg><rect width="395.52" height="127.24347168767943" fill="none" stroke="none" visibility="hidden"></rect></g></svg></g></svg>