<svg xmlns="http://www.w3.org/2000/svg" version="1.1" xmlns:xlink="http://www.w3.org/1999/xlink" xmlns:svgjs="http://svgjs.dev/svgjs" width="128" height="128" viewBox="0 0 128 128"><g transform="matrix(0.8046875,0,0,0.8046875,12.760752631578946,18.754890569221764)"><svg viewBox="0 0 95 84" data-background-color="#ffffff" preserveAspectRatio="xMidYMid meet" height="113" width="128" xmlns="http://www.w3.org/2000/svg" xmlns:xlink="http://www.w3.org/1999/xlink"><g id="tight-bounds" transform="matrix(1,0,0,1,-0.24049999999999727,-0.1878425925742846)"><svg viewBox="0 0 95.48099999999998 84.38062047283276" height="84.38062047283276" width="95.48099999999998"><g><svg viewBox="0 0 95.48099999999998 84.38062047283276" height="84.38062047283276" width="95.48099999999998"><g><svg viewBox="0 0 95.48099999999998 84.38062047283276" height="84.38062047283276" width="95.48099999999998"><g id="textblocktransform"><svg viewBox="0 0 95.48099999999998 84.38062047283276" height="84.38062047283276" width="95.48099999999998" id="textblock"><g><svg viewBox="0 0 95.48099999999998 84.38062047283276" height="84.38062047283276" width="95.48099999999998"><g><svg viewBox="0 0 95.48099999999998 84.38062047283276" height="84.38062047283276" width="95.48099999999998"><g><svg xmlns="http://www.w3.org/2000/svg" xmlns:xlink="http://www.w3.org/1999/xlink" version="1.1" x="0" y="0" viewBox="9.22 11.139998451500785 85.13 75.23300154849922" enable-background="new 0 0 100 100" xml:space="preserve" height="84.38062047283276" width="95.48099999999998" class="icon-icon-0" data-fill-palette-color="accent" id="icon-0"><g fill="#f231aa" data-fill-palette-color="accent"><g fill="#f231aa" data-fill-palette-color="accent"><path d="M70.611 34.62L66.412 13.002H73.12L80.113 34.62zM47.05 34.62L48.439 13.002H54.885L56.212 34.62zM23.523 34.62L30.442 13.002H37.193L32.911 34.62zM22.957 65.521V39.557C23.887 41.195 26.002 42.535 28.263 42.535 30.835 42.535 32.897 40.8 34.112 38.867 35.325 40.8 37.42 42.535 39.993 42.535 42.565 42.535 44.677 40.8 45.889 38.867 47.102 40.8 49.221 42.535 51.795 42.535 54.367 42.535 56.491 40.8 57.705 38.867 58.917 40.8 61.042 42.535 63.613 42.535 66.187 42.535 68.312 40.8 69.527 38.867 70.74 40.8 72.736 42.535 75.31 42.535 77.572 42.535 79.683 41.195 80.613 39.557V65.521zM94.25 34.62C94.26 34.62 94.27 34.39 94.23 34.26 94.169 34.07 94.049 33.94 93.91 33.82L84.18 11.92A1.12 1.12 0 0 0 83.111 11.14H20.46C19.97 11.14 19.54 11.47 19.39 11.94L9.8 33.74C9.58 33.89 9.4 34.07 9.32 34.34 9.29 34.45 9.31 34.62 9.31 34.62H9.22L9.31 35.87C9.51 38.5 12.44 42.51 16.35 42.51 17.02 42.51 17.38 42.41 18.31 45.2L18.375 86.373C20.155 86.373 46.25 86.33 46.25 86.33V76.38A5.875 5.875 0 1 1 58 76.38V86.33S82.105 86.251 85.125 86.251L85.27 45.2C86.201 42.41 86.55 42.53 87.22 42.53 91.13 42.53 94.04 38.5 94.241 35.87L94.35 34.62z" fill="#f231aa" data-fill-palette-color="accent"></path></g></g><rect x="29.5" y="46.5" width="13.5" height="12.75" fill="#f231aa" data-fill-palette-color="accent"></rect><rect x="45.375" y="46.5" width="13.5" height="12.75" fill="#f231aa" data-fill-palette-color="accent"></rect><rect x="61.25" y="46.5" width="13.5" height="12.75" fill="#f231aa" data-fill-palette-color="accent"></rect></svg></g></svg></g></svg></g></svg></g></svg></g></svg></g><defs></defs></svg><rect width="95.48099999999998" height="84.38062047283276" fill="none" stroke="none" visibility="hidden"></rect></g></svg></g></svg>